<svg xmlns="http://www.w3.org/2000/svg" xmlns:xlink="http://www.w3.org/1999/xlink" width="500" zoomAndPan="magnify" viewBox="0 0 375 374.999991" height="500" preserveAspectRatio="xMidYMid meet" version="1.0"><defs><g/><clipPath id="3e8c5ac1bc"><path d="M 187.5 0 C 83.945312 0 0 83.945312 0 187.5 C 0 291.054688 83.945312 375 187.5 375 C 291.054688 375 375 291.054688 375 187.5 C 375 83.945312 291.054688 0 187.5 0 " clip-rule="nonzero"/></clipPath></defs><g clip-path="url(#3e8c5ac1bc)"><rect x="-37.5" width="450" fill="#000000" y="-37.499999" height="449.999989" fill-opacity="1"/></g><g fill="#ffffff" fill-opacity="1"><g transform="translate(145.972739, 155.16741)"><g><path d="M 8.953125 0 L 8.953125 -67.8125 L 20.96875 -67.8125 L 41.40625 -11.8125 L 62.140625 -67.8125 L 74.09375 -67.8125 L 74.09375 0 L 65.140625 0 L 65.140625 -54.828125 L 45.484375 0 L 37.375 0 L 17.875 -54.3125 L 17.875 0 Z M 8.953125 0 "/></g></g></g><g fill="#ffffff" fill-opacity="1"><g transform="translate(154.193996, 213.229109)"><g><path d="M 3.890625 0 L 28.421875 -67.8125 L 38.21875 -67.8125 L 62.75 0 L 53.890625 0 L 47.234375 -18.578125 L 19.515625 -18.578125 L 12.703125 0 Z M 21.71875 -26.546875 L 44.921875 -26.546875 L 33.390625 -59.234375 Z M 21.71875 -26.546875 "/></g></g></g><g fill="#ffffff" fill-opacity="1"><g transform="translate(39.925783, 255.224719)"><g><path d="M 4.203125 0 L 4.203125 -31.8125 L 9.828125 -31.8125 L 19.421875 -5.546875 L 29.15625 -31.8125 L 34.765625 -31.8125 L 34.765625 0 L 30.5625 0 L 30.5625 -25.71875 L 21.34375 0 L 17.53125 0 L 8.375 -25.46875 L 8.375 0 Z M 4.203125 0 "/></g></g></g><g fill="#ffffff" fill-opacity="1"><g transform="translate(78.88084, 255.224719)"><g><path d="M 1.828125 0 L 13.328125 -31.8125 L 17.9375 -31.8125 L 29.4375 0 L 25.28125 0 L 22.15625 -8.71875 L 9.15625 -8.71875 L 5.96875 0 Z M 10.1875 -12.453125 L 21.078125 -12.453125 L 15.65625 -27.78125 Z M 10.1875 -12.453125 "/></g></g></g><g fill="#ffffff" fill-opacity="1"><g transform="translate(110.115278, 255.224719)"><g><path d="M 1.015625 -28.078125 L 1.015625 -31.8125 L 25.078125 -31.8125 L 25.078125 -28.078125 L 15.375 -28.078125 L 15.375 0 L 11.28125 0 L 11.28125 -28.078125 Z M 1.015625 -28.078125 "/></g></g></g><g fill="#ffffff" fill-opacity="1"><g transform="translate(136.224628, 255.224719)"><g><path d="M 1.015625 -28.078125 L 1.015625 -31.8125 L 25.078125 -31.8125 L 25.078125 -28.078125 L 15.375 -28.078125 L 15.375 0 L 11.28125 0 L 11.28125 -28.078125 Z M 1.015625 -28.078125 "/></g></g></g><g fill="#ffffff" fill-opacity="1"><g transform="translate(162.333978, 255.224719)"><g/></g></g><g fill="#ffffff" fill-opacity="1"><g transform="translate(172.474175, 255.224719)"><g><path d="M 1.828125 0 L 13.328125 -31.8125 L 17.9375 -31.8125 L 29.4375 0 L 25.28125 0 L 22.15625 -8.71875 L 9.15625 -8.71875 L 5.96875 0 Z M 10.1875 -12.453125 L 21.078125 -12.453125 L 15.65625 -27.78125 Z M 10.1875 -12.453125 "/></g></g></g><g fill="#ffffff" fill-opacity="1"><g transform="translate(203.708613, 255.224719)"><g><path d="M 1.015625 -28.078125 L 1.015625 -31.8125 L 25.078125 -31.8125 L 25.078125 -28.078125 L 15.375 -28.078125 L 15.375 0 L 11.28125 0 L 11.28125 -28.078125 Z M 1.015625 -28.078125 "/></g></g></g><g fill="#ffffff" fill-opacity="1"><g transform="translate(229.817963, 255.224719)"><g><path d="M 28.46875 0 L 23.875 0 L 13.953125 -16.34375 L 8.421875 -10.03125 L 8.421875 0 L 4.203125 0 L 4.203125 -31.8125 L 8.421875 -31.8125 L 8.421875 -15.359375 L 22.6875 -31.8125 L 27.546875 -31.8125 L 16.921875 -19.3125 Z M 28.46875 0 "/></g></g></g><g fill="#ffffff" fill-opacity="1"><g transform="translate(259.820605, 255.224719)"><g><path d="M 4.203125 -31.8125 L 8.265625 -31.8125 L 8.265625 0 L 4.203125 0 Z M 4.203125 -31.8125 "/></g></g></g><g fill="#ffffff" fill-opacity="1"><g transform="translate(272.270402, 255.224719)"><g><path d="M 24.90625 -31.8125 L 28.96875 -31.8125 L 28.96875 0 L 25.34375 0 L 8.265625 -25.078125 L 8.265625 0 L 4.203125 0 L 4.203125 -31.8125 L 8.09375 -31.8125 L 24.90625 -7.078125 Z M 24.90625 -31.8125 "/></g></g></g><g fill="#ffffff" fill-opacity="1"><g transform="translate(305.440506, 255.224719)"><g><path d="M 15 0.4375 C 13.507812 0.4375 12.054688 0.25 10.640625 -0.125 C 9.234375 -0.5 7.957031 -1.054688 6.8125 -1.796875 C 5.675781 -2.546875 4.726562 -3.472656 3.96875 -4.578125 C 3.21875 -5.691406 2.742188 -6.984375 2.546875 -8.453125 L 6.8125 -8.453125 C 7.082031 -7.242188 7.609375 -6.226562 8.390625 -5.40625 C 9.171875 -4.59375 10.128906 -3.976562 11.265625 -3.5625 C 12.410156 -3.15625 13.648438 -2.953125 14.984375 -2.953125 C 16.472656 -2.953125 17.804688 -3.160156 18.984375 -3.578125 C 20.171875 -3.992188 21.101562 -4.585938 21.78125 -5.359375 C 22.46875 -6.140625 22.8125 -7.070312 22.8125 -8.15625 C 22.8125 -9.113281 22.59375 -9.941406 22.15625 -10.640625 C 21.726562 -11.347656 21.101562 -11.9375 20.28125 -12.40625 C 19.457031 -12.875 18.460938 -13.242188 17.296875 -13.515625 L 11.046875 -14.953125 C 8.703125 -15.472656 6.863281 -16.390625 5.53125 -17.703125 C 4.207031 -19.023438 3.53125 -20.773438 3.5 -22.953125 C 3.5 -24.785156 3.984375 -26.394531 4.953125 -27.78125 C 5.929688 -29.175781 7.273438 -30.257812 8.984375 -31.03125 C 10.691406 -31.8125 12.644531 -32.203125 14.84375 -32.203125 C 17.382812 -32.203125 19.519531 -31.769531 21.25 -30.90625 C 22.976562 -30.039062 24.28125 -28.90625 25.15625 -27.5 C 26.039062 -26.09375 26.492188 -24.585938 26.515625 -22.984375 L 22.3125 -22.984375 C 22.175781 -24.421875 21.75 -25.5625 21.03125 -26.40625 C 20.320312 -27.25 19.429688 -27.847656 18.359375 -28.203125 C 17.296875 -28.566406 16.132812 -28.75 14.875 -28.75 C 13.96875 -28.75 13.09375 -28.632812 12.25 -28.40625 C 11.40625 -28.1875 10.644531 -27.847656 9.96875 -27.390625 C 9.300781 -26.929688 8.769531 -26.363281 8.375 -25.6875 C 7.976562 -25.019531 7.78125 -24.238281 7.78125 -23.34375 C 7.78125 -22.195312 8.171875 -21.265625 8.953125 -20.546875 C 9.742188 -19.828125 11.175781 -19.210938 13.25 -18.703125 L 19.296875 -17.25 C 20.878906 -16.90625 22.171875 -16.40625 23.171875 -15.75 C 24.179688 -15.09375 24.957031 -14.34375 25.5 -13.5 C 26.050781 -12.664062 26.429688 -11.796875 26.640625 -10.890625 C 26.859375 -9.984375 26.96875 -9.085938 26.96875 -8.203125 C 26.96875 -6.609375 26.488281 -5.15625 25.53125 -3.84375 C 24.582031 -2.53125 23.21875 -1.488281 21.4375 -0.71875 C 19.65625 0.0507812 17.507812 0.4375 15 0.4375 Z M 15 0.4375 "/></g></g></g></svg>